<?xml version="1.0" encoding="utf-8"?>
<!-- Generator: Adobe Illustrator 26.5.0, SVG Export Plug-In . SVG Version: 6.00 Build 0)  -->
<svg version="1.1" id="Layer_1" xmlns="http://www.w3.org/2000/svg" xmlns:xlink="http://www.w3.org/1999/xlink" x="0px" y="0px"
	 viewBox="0 0 1283.5 570.5" style="enable-background:new 0 0 1283.5 570.5;" xml:space="preserve">
<style type="text/css">
	.st0{fill:#E50019;}
	.st1{fill:#FFFFFF;}
</style>
<g>
	<g>
		<g>
			<path class="st0" d="M701.6,142.1v182h-22.4v-182H701.6z"/>
			<path class="st0" d="M740.5,163c-3-3-4.4-6.6-4.4-10.8c0-4.3,1.5-7.9,4.4-10.8c2.9-2.9,6.6-4.4,10.8-4.4c4.1,0,7.6,1.5,10.4,4.4
				c2.9,3,4.3,6.6,4.3,10.8c0,4.3-1.4,7.9-4.3,10.8c-2.9,2.9-6.4,4.4-10.4,4.4C747,167.4,743.4,165.9,740.5,163z M762.1,189.3v134.8
				h-22.4V189.3H762.1z"/>
			<path class="st0" d="M827.5,207.7v79.4c0,6.6,1.4,11.2,4.2,13.9c2.8,2.7,7.6,4.1,14.5,4.1h16.5v18.9h-20.2
				c-12.5,0-21.8-2.9-28-8.6c-6.2-5.7-9.4-15.2-9.4-28.3v-79.4h-17.5v-18.4h17.5v-33.9h22.4v33.9h35.2v18.4H827.5z"/>
			<path class="st0" d="M1012,265H904.3c0.8,13.3,5.4,23.7,13.6,31.1c8.3,7.5,18.3,11.2,30.1,11.2c9.7,0,17.7-2.3,24.2-6.8
				c6.5-4.5,11-10.5,13.7-18.1h24.1c-3.6,13-10.8,23.5-21.7,31.6c-10.8,8.1-24.3,12.2-40.3,12.2c-12.8,0-24.2-2.9-34.3-8.6
				c-10.1-5.7-18-13.9-23.7-24.5c-5.7-10.6-8.6-22.8-8.6-36.8c0-13.9,2.8-26.1,8.4-36.6c5.6-10.5,13.4-18.6,23.5-24.2
				c10.1-5.7,21.7-8.5,34.8-8.5c12.8,0,24.1,2.8,33.9,8.4c9.8,5.6,17.4,13.2,22.7,23c5.3,9.8,8,20.8,8,33.1
				C1012.8,255.8,1012.5,260.3,1012,265z M984,224.8c-3.8-6.1-8.9-10.8-15.4-14c-6.5-3.2-13.7-4.8-21.5-4.8
				c-11.3,0-21,3.6-28.9,10.8c-8,7.2-12.5,17.2-13.7,30h85.1C989.6,238.3,987.8,231,984,224.8z"/>
			<path class="st0" d="M1147.8,201.7c10.2,9.9,15.3,24.2,15.3,42.9v79.4h-22.1v-76.3c0-13.4-3.3-23.7-10.1-30.9
				c-6.7-7.1-15.9-10.7-27.5-10.7c-11.8,0-21.2,3.7-28.2,11.1c-7,7.4-10.4,18.1-10.4,32.2v74.5h-22.4V189.3h22.4v19.2
				c4.4-6.9,10.4-12.2,18.1-16c7.6-3.8,16-5.7,25.2-5.7C1124.3,186.8,1137.6,191.8,1147.8,201.7z"/>
		</g>
	</g>
	<rect class="st0" width="570.5" height="570.5"/>
	<g>
		<path class="st1" d="M169.2,323.8c34.1,0,63-18.7,68.2-22.1c3.7,6.4,18.1,22.1,49.5,22.1c24.8,0,52.3-12.3,61.5-18.3
			c5.6,7.5,17.1,18.3,52.3,18.3c23.2,0,37.9-8.1,47.2-19.1c0.2,5.8,0.4,11.5,0.7,15.9l14.1,2.2c-0.5-14.6-0.1-65.4-0.1-66.2
			c0-63.8-48.5-68.3-58.6-68.3c-15.8,0-31,3.3-47,9.6l-1.1,16.8c6.2-2.9,26.2-11.5,46.1-11.5c15.7,0,27.7,5.3,35.9,15.6
			c-53.9,28.4-86.1,51.1-90.9,70.1c-13.8,9.3-38.1,20.1-59.7,20.1c-23,0-33-10-37.3-15.7c59.1-39.8,89.8-62.7,86-80.9
			c-3.4-16.4-27.7-24-49.4-24c-22.3,0-37.6,9.6-44.8,17.1c-11.6,12-17.2,29.8-16.5,52.9c0.3,10.1,2.3,20.6,5.7,29.8
			c-9.1,5.9-33.8,20.8-62.2,20.8c-33.7,0-47.6-26.3-47.6-52.9c0-25.8,13-52.9,47.6-52.9c19.5,0,39,8.2,45.7,11.3l-1.1-16.8
			c-12.6-4.9-29.1-9.4-43.4-9.4c-57.3,0-62,48.1-61.8,67.7C107.7,275.7,112.9,323.8,169.2,323.8z M444.5,231.4
			c1.8,4.6,3.4,10.5,4.3,16.1c0,0.3,3.9,30.1-12,48.3c-8.2,9.4-20.6,13.6-36.3,13.7c-35.8,0.3-39.3-13.3-39.3-13.3
			C357.5,287.9,369.6,271.1,444.5,231.4z M250.7,216.3c8.2-9.4,20.4-14.2,36.1-14.2c17,0,31.2,5.9,32.6,12.7
			c1.1,5.1-3.7,11.6-25.6,29.1c-0.2,0.2-22.4,19-50.9,35.9c-1.8-4.6-3.2-9.7-4.1-15.2C238.7,264.4,234.8,234.5,250.7,216.3z"/>
		<rect x="121.9" y="368.3" class="st1" width="326.8" height="13.9"/>
	</g>
	<polygon class="st0" points="1283.5,569.9 1080.5,569.9 1080.5,555.3 1268.9,555.3 1268.9,366.9 1283.5,366.9 	"/>
</g>
</svg>
